<svg width="95" height="48" viewBox="0 0 95 48" fill="none" xmlns="http://www.w3.org/2000/svg">
<g filter="url(#filter0_d)">
<path d="M19.4696 23.4496L27.5196 29.7371C27.5407 29.7536 27.566 29.7639 27.5926 29.7668C27.6192 29.7696 27.6461 29.7649 27.6701 29.7531C27.6942 29.7414 27.7144 29.7231 27.7286 29.7004C27.7427 29.6776 27.7501 29.6514 27.75 29.6246L27.75 28.2442C27.75 28.1567 27.7089 28.0728 27.6411 28.0192L21.2125 22.9996L27.6411 17.9799C27.7107 17.9264 27.75 17.8424 27.75 17.7549L27.75 16.3746C27.75 16.2549 27.6125 16.1889 27.5196 16.2621L19.4696 22.5496C19.4012 22.603 19.3459 22.6712 19.3078 22.7492C19.2697 22.8272 19.2499 22.9128 19.2499 22.9996C19.2499 23.0864 19.2697 23.172 19.3078 23.25C19.3459 23.3279 19.4012 23.3962 19.4696 23.4496Z" fill="white"/>
<path d="M46.0372 20.52C46.8265 20.52 47.5412 20.7013 48.1812 21.064C48.8212 21.416 49.3225 21.9173 49.6852 22.568C50.0479 23.2187 50.2292 23.96 50.2292 24.792C50.2292 25.624 50.0479 26.3653 49.6852 27.016C49.3225 27.6667 48.8212 28.1733 48.1812 28.536C47.5412 28.8987 46.8265 29.08 46.0372 29.08C45.3332 29.08 44.6985 28.9307 44.1332 28.632C43.5785 28.3333 43.1305 27.9013 42.7892 27.336V29H41.7012V17.128H42.8372V22.184C43.1892 21.64 43.6372 21.2293 44.1812 20.952C44.7359 20.664 45.3545 20.52 46.0372 20.52ZM45.9572 28.072C46.5439 28.072 47.0772 27.9387 47.5572 27.672C48.0372 27.3947 48.4105 27.0053 48.6772 26.504C48.9545 26.0027 49.0932 25.432 49.0932 24.792C49.0932 24.152 48.9545 23.5813 48.6772 23.08C48.4105 22.5787 48.0372 22.1947 47.5572 21.928C47.0772 21.6507 46.5439 21.512 45.9572 21.512C45.3599 21.512 44.8212 21.6507 44.3412 21.928C43.8719 22.1947 43.4985 22.5787 43.2212 23.08C42.9545 23.5813 42.8212 24.152 42.8212 24.792C42.8212 25.432 42.9545 26.0027 43.2212 26.504C43.4985 27.0053 43.8719 27.3947 44.3412 27.672C44.8212 27.9387 45.3599 28.072 45.9572 28.072ZM55.4421 20.52C56.5407 20.52 57.3834 20.7973 57.9701 21.352C58.5567 21.896 58.8501 22.7067 58.8501 23.784V29H57.7621V27.688C57.5061 28.1253 57.1274 28.4667 56.6261 28.712C56.1354 28.9573 55.5487 29.08 54.8661 29.08C53.9274 29.08 53.1807 28.856 52.6261 28.408C52.0714 27.96 51.7941 27.368 51.7941 26.632C51.7941 25.9173 52.0501 25.3413 52.5621 24.904C53.0847 24.4667 53.9114 24.248 55.0421 24.248H57.7141V23.736C57.7141 23.0107 57.5114 22.4613 57.1061 22.088C56.7007 21.704 56.1087 21.512 55.3301 21.512C54.7967 21.512 54.2847 21.6027 53.7941 21.784C53.3034 21.9547 52.8821 22.1947 52.5301 22.504L52.0181 21.656C52.4447 21.2933 52.9567 21.016 53.5541 20.824C54.1514 20.6213 54.7807 20.52 55.4421 20.52ZM55.0421 28.184C55.6821 28.184 56.2314 28.04 56.6901 27.752C57.1487 27.4533 57.4901 27.0267 57.7141 26.472V25.096H55.0741C53.6341 25.096 52.9141 25.5973 52.9141 26.6C52.9141 27.0907 53.1007 27.48 53.4741 27.768C53.8474 28.0453 54.3701 28.184 55.0421 28.184ZM65.4548 29.08C64.6228 29.08 63.8761 28.8987 63.2148 28.536C62.5641 28.1733 62.0521 27.6667 61.6788 27.016C61.3055 26.3547 61.1188 25.6133 61.1188 24.792C61.1188 23.9707 61.3055 23.2347 61.6788 22.584C62.0521 21.9333 62.5641 21.4267 63.2148 21.064C63.8761 20.7013 64.6228 20.52 65.4548 20.52C66.1801 20.52 66.8255 20.664 67.3908 20.952C67.9668 21.2293 68.4201 21.64 68.7508 22.184L67.9028 22.76C67.6255 22.344 67.2735 22.0347 66.8468 21.832C66.4201 21.6187 65.9561 21.512 65.4548 21.512C64.8468 21.512 64.2975 21.6507 63.8068 21.928C63.3268 22.1947 62.9481 22.5787 62.6708 23.08C62.4041 23.5813 62.2708 24.152 62.2708 24.792C62.2708 25.4427 62.4041 26.0187 62.6708 26.52C62.9481 27.0107 63.3268 27.3947 63.8068 27.672C64.2975 27.9387 64.8468 28.072 65.4548 28.072C65.9561 28.072 66.4201 27.9707 66.8468 27.768C67.2735 27.5653 67.6255 27.256 67.9028 26.84L68.7508 27.416C68.4201 27.96 67.9668 28.376 67.3908 28.664C66.8148 28.9413 66.1695 29.08 65.4548 29.08ZM73.9774 24.776L71.9934 26.6V29H70.8574V17.128H71.9934V25.176L77.0174 20.584H78.4254L74.8254 24.024L78.7614 29H77.3694L73.9774 24.776Z" fill="white"/>
<path d="M23 1H72V-1H23V1ZM72 45H23V47H72V45ZM23 45C10.8497 45 1 35.1503 1 23H-1C-1 36.2548 9.74516 47 23 47V45ZM94 23C94 35.1503 84.1503 45 72 45V47C85.2548 47 96 36.2548 96 23H94ZM72 1C84.1503 1 94 10.8497 94 23H96C96 9.74517 85.2548 -1 72 -1V1ZM23 -1C9.74517 -1 -1 9.74517 -1 23H1C1 10.8497 10.8497 1 23 1V-1Z" fill="white"/>
</g>
<defs>
<filter id="filter0_d" x="0" y="0" width="95" height="48" filterUnits="userSpaceOnUse" color-interpolation-filters="sRGB">
<feFlood flood-opacity="0" result="BackgroundImageFix"/>
<feColorMatrix in="SourceAlpha" type="matrix" values="0 0 0 0 0 0 0 0 0 0 0 0 0 0 0 0 0 0 127 0" result="hardAlpha"/>
<feOffset dy="2"/>
<feColorMatrix type="matrix" values="0 0 0 0 0 0 0 0 0 0 0 0 0 0 0 0 0 0 0.043 0"/>
<feBlend mode="normal" in2="BackgroundImageFix" result="effect1_dropShadow"/>
<feBlend mode="normal" in="SourceGraphic" in2="effect1_dropShadow" result="shape"/>
</filter>
</defs>
</svg>
