<svg width="10" height="14" viewBox="0 0 10 14" fill="none" xmlns="http://www.w3.org/2000/svg">
<path d="M1.0275 7.44958L9.0775 13.7371C9.09854 13.7536 9.12382 13.7639 9.15044 13.7668C9.17706 13.7696 9.20394 13.7649 9.228 13.7531C9.25205 13.7414 9.27231 13.7231 9.28643 13.7004C9.30056 13.6776 9.30799 13.6514 9.30786 13.6246L9.30786 12.2442C9.30786 12.1567 9.26679 12.0728 9.19893 12.0192L2.77036 6.99958L9.19893 1.97994C9.26857 1.92637 9.30786 1.84244 9.30786 1.75494L9.30786 0.374582C9.30786 0.254939 9.17036 0.188869 9.0775 0.262082L1.0275 6.54958C0.959082 6.60295 0.903734 6.67122 0.865664 6.7492C0.827595 6.82718 0.807808 6.91281 0.807808 6.99958C0.807808 7.08635 0.827595 7.17199 0.865664 7.24996C0.903734 7.32794 0.959082 7.39621 1.0275 7.44958Z" fill="black"/>
</svg>
