<svg width="375" height="73" viewBox="0 0 375 73" fill="none" xmlns="http://www.w3.org/2000/svg">
<g clip-path="url(#clip0)">
<g filter="url(#filter0_d)">
<rect y="5" width="375" height="68.248" fill="white"/>
<path d="M195.068 38.3191C194.436 36.823 193.52 35.4641 192.369 34.318C191.222 33.1686 189.864 32.2521 188.368 31.6193C188.355 31.6126 188.341 31.6093 188.328 31.6026C190.414 30.0959 191.77 27.6416 191.77 24.8727C191.77 20.2856 188.053 16.5691 183.466 16.5691C178.879 16.5691 175.163 20.2856 175.163 24.8727C175.163 27.6416 176.519 30.0959 178.605 31.6059C178.591 31.6126 178.578 31.616 178.565 31.6227C177.065 32.2555 175.719 33.1628 174.563 34.3213C173.414 35.4683 172.498 36.827 171.865 38.3224C171.243 39.7865 170.908 41.3561 170.877 42.9463C170.876 42.9821 170.882 43.0176 170.895 43.0509C170.909 43.0842 170.928 43.1145 170.953 43.1401C170.978 43.1657 171.008 43.186 171.041 43.1999C171.074 43.2138 171.109 43.2209 171.145 43.2209H173.154C173.301 43.2209 173.418 43.1037 173.422 42.9597C173.489 40.3749 174.527 37.9541 176.361 36.1193C178.26 34.2209 180.781 33.1762 183.466 33.1762C186.152 33.1762 188.673 34.2209 190.571 36.1193C192.406 37.9541 193.444 40.3749 193.511 42.9597C193.514 43.107 193.632 43.2209 193.779 43.2209H195.788C195.823 43.2209 195.859 43.2138 195.892 43.1999C195.925 43.186 195.955 43.1657 195.98 43.1401C196.005 43.1145 196.024 43.0842 196.037 43.0509C196.05 43.0176 196.057 42.9821 196.056 42.9463C196.022 41.3459 195.691 39.789 195.068 38.3191ZM183.466 30.6316C181.929 30.6316 180.483 30.0323 179.395 28.9441C178.307 27.8559 177.707 26.4095 177.707 24.8727C177.707 23.3358 178.307 21.8894 179.395 20.8012C180.483 19.7131 181.929 19.1137 183.466 19.1137C185.003 19.1137 186.45 19.7131 187.538 20.8012C188.626 21.8894 189.225 23.3358 189.225 24.8727C189.225 26.4095 188.626 27.8559 187.538 28.9441C186.45 30.0323 185.003 30.6316 183.466 30.6316Z" fill="#5E5E5E"/>
<path d="M163.059 56.499V64.899H162.207V58.179L158.907 63.831H158.487L155.187 58.215V64.899H154.335V56.499H155.067L158.715 62.727L162.327 56.499H163.059ZM170.92 58.587L167.764 65.655C167.508 66.247 167.212 66.667 166.876 66.915C166.54 67.163 166.136 67.287 165.664 67.287C165.36 67.287 165.076 67.239 164.812 67.143C164.548 67.047 164.32 66.903 164.128 66.711L164.524 66.075C164.844 66.395 165.228 66.555 165.676 66.555C165.964 66.555 166.208 66.475 166.408 66.315C166.616 66.155 166.808 65.883 166.984 65.499L167.26 64.887L164.44 58.587H165.328L167.704 63.951L170.08 58.587H170.92ZM178.585 56.499C179.657 56.499 180.497 56.755 181.105 57.267C181.713 57.779 182.017 58.483 182.017 59.379C182.017 60.275 181.713 60.979 181.105 61.491C180.497 61.995 179.657 62.247 178.585 62.247H176.329V64.899H175.441V56.499H178.585ZM178.561 61.467C179.393 61.467 180.029 61.287 180.469 60.927C180.909 60.559 181.129 60.043 181.129 59.379C181.129 58.699 180.909 58.179 180.469 57.819C180.029 57.451 179.393 57.267 178.561 57.267H176.329V61.467H178.561ZM184.409 59.823C184.609 59.399 184.905 59.079 185.297 58.863C185.697 58.647 186.189 58.539 186.773 58.539V59.367L186.569 59.355C185.905 59.355 185.385 59.559 185.009 59.967C184.633 60.375 184.445 60.947 184.445 61.683V64.899H183.593V58.587H184.409V59.823ZM190.837 64.959C190.229 64.959 189.681 64.823 189.193 64.551C188.705 64.271 188.321 63.887 188.041 63.399C187.761 62.911 187.621 62.359 187.621 61.743C187.621 61.127 187.761 60.575 188.041 60.087C188.321 59.599 188.705 59.219 189.193 58.947C189.681 58.675 190.229 58.539 190.837 58.539C191.445 58.539 191.993 58.675 192.481 58.947C192.969 59.219 193.349 59.599 193.621 60.087C193.901 60.575 194.041 61.127 194.041 61.743C194.041 62.359 193.901 62.911 193.621 63.399C193.349 63.887 192.969 64.271 192.481 64.551C191.993 64.823 191.445 64.959 190.837 64.959ZM190.837 64.203C191.285 64.203 191.685 64.103 192.037 63.903C192.397 63.695 192.677 63.403 192.877 63.027C193.077 62.651 193.177 62.223 193.177 61.743C193.177 61.263 193.077 60.835 192.877 60.459C192.677 60.083 192.397 59.795 192.037 59.595C191.685 59.387 191.285 59.283 190.837 59.283C190.389 59.283 189.985 59.387 189.625 59.595C189.273 59.795 188.993 60.083 188.785 60.459C188.585 60.835 188.485 61.263 188.485 61.743C188.485 62.223 188.585 62.651 188.785 63.027C188.993 63.403 189.273 63.695 189.625 63.903C189.985 64.103 190.389 64.203 190.837 64.203ZM197.868 56.655C197.5 56.655 197.22 56.755 197.028 56.955C196.844 57.155 196.752 57.451 196.752 57.843V58.587H198.696V59.307H196.776V64.899H195.924V59.307H194.796V58.587H195.924V57.807C195.924 57.231 196.088 56.775 196.416 56.439C196.752 56.103 197.224 55.935 197.832 55.935C198.072 55.935 198.304 55.971 198.528 56.043C198.752 56.107 198.94 56.203 199.092 56.331L198.804 56.967C198.556 56.759 198.244 56.655 197.868 56.655ZM200.808 58.587H201.66V64.899H200.808V58.587ZM201.24 57.207C201.064 57.207 200.916 57.147 200.796 57.027C200.676 56.907 200.616 56.763 200.616 56.595C200.616 56.435 200.676 56.295 200.796 56.175C200.916 56.055 201.064 55.995 201.24 55.995C201.416 55.995 201.564 56.055 201.684 56.175C201.804 56.287 201.864 56.423 201.864 56.583C201.864 56.759 201.804 56.907 201.684 57.027C201.564 57.147 201.416 57.207 201.24 57.207ZM204.042 55.995H204.894V64.899H204.042V55.995ZM212.761 62.007H207.481C207.529 62.663 207.781 63.195 208.237 63.603C208.693 64.003 209.269 64.203 209.965 64.203C210.357 64.203 210.717 64.135 211.045 63.999C211.373 63.855 211.657 63.647 211.897 63.375L212.377 63.927C212.097 64.263 211.745 64.519 211.321 64.695C210.905 64.871 210.445 64.959 209.941 64.959C209.293 64.959 208.717 64.823 208.213 64.551C207.717 64.271 207.329 63.887 207.049 63.399C206.769 62.911 206.629 62.359 206.629 61.743C206.629 61.127 206.761 60.575 207.025 60.087C207.297 59.599 207.665 59.219 208.129 58.947C208.601 58.675 209.129 58.539 209.713 58.539C210.297 58.539 210.821 58.675 211.285 58.947C211.749 59.219 212.113 59.599 212.377 60.087C212.641 60.567 212.773 61.119 212.773 61.743L212.761 62.007ZM209.713 59.271C209.105 59.271 208.593 59.467 208.177 59.859C207.769 60.243 207.537 60.747 207.481 61.371H211.957C211.901 60.747 211.665 60.243 211.249 59.859C210.841 59.467 210.329 59.271 209.713 59.271Z" fill="#5E5E5E"/>
<g clip-path="url(#clip1)">
<path d="M314.017 43.4883H305.982C305.834 43.4883 305.714 43.6089 305.714 43.7562V44.8276C305.714 45.4203 306.193 45.899 306.785 45.899H313.214C313.806 45.899 314.285 45.4203 314.285 44.8276V43.7562C314.285 43.6089 314.165 43.4883 314.017 43.4883ZM309.999 15.899C303.936 15.899 299.017 20.8176 299.017 26.8812C299.017 30.9459 301.227 34.495 304.508 36.3935V40.274C304.508 40.8667 304.987 41.3455 305.58 41.3455H314.419C315.012 41.3455 315.491 40.8667 315.491 40.274V36.3935C318.772 34.495 320.982 30.9459 320.982 26.8812C320.982 20.8176 316.063 15.899 309.999 15.899ZM314.282 34.3075L313.08 35.004V38.9348H306.919V35.004L305.717 34.3075C303.082 32.7841 301.428 29.9783 301.428 26.8812C301.428 22.1468 305.265 18.3098 309.999 18.3098C314.734 18.3098 318.571 22.1468 318.571 26.8812C318.571 29.9783 316.917 32.7841 314.282 34.3075Z" fill="#5E5E5E"/>
</g>
<path d="M280.388 55.6735V64.0735H279.512V60.1975H274.256V64.0735H273.368V55.6735H274.256V59.4175H279.512V55.6735H280.388ZM285.53 64.1335C284.922 64.1335 284.374 63.9975 283.886 63.7255C283.398 63.4455 283.014 63.0615 282.734 62.5735C282.454 62.0855 282.314 61.5335 282.314 60.9175C282.314 60.3015 282.454 59.7495 282.734 59.2615C283.014 58.7735 283.398 58.3935 283.886 58.1215C284.374 57.8495 284.922 57.7135 285.53 57.7135C286.138 57.7135 286.686 57.8495 287.174 58.1215C287.662 58.3935 288.042 58.7735 288.314 59.2615C288.594 59.7495 288.734 60.3015 288.734 60.9175C288.734 61.5335 288.594 62.0855 288.314 62.5735C288.042 63.0615 287.662 63.4455 287.174 63.7255C286.686 63.9975 286.138 64.1335 285.53 64.1335ZM285.53 63.3775C285.978 63.3775 286.378 63.2775 286.73 63.0775C287.09 62.8695 287.37 62.5775 287.57 62.2015C287.77 61.8255 287.87 61.3975 287.87 60.9175C287.87 60.4375 287.77 60.0095 287.57 59.6335C287.37 59.2575 287.09 58.9695 286.73 58.7695C286.378 58.5615 285.978 58.4575 285.53 58.4575C285.082 58.4575 284.678 58.5615 284.318 58.7695C283.966 58.9695 283.686 59.2575 283.478 59.6335C283.278 60.0095 283.178 60.4375 283.178 60.9175C283.178 61.3975 283.278 61.8255 283.478 62.2015C283.686 62.5775 283.966 62.8695 284.318 63.0775C284.678 63.2775 285.082 63.3775 285.53 63.3775ZM299.561 57.7615L297.173 64.0735H296.369L294.377 58.9015L292.385 64.0735H291.581L289.205 57.7615H290.021L292.001 63.1255L294.029 57.7615H294.761L296.777 63.1255L298.781 57.7615H299.561ZM303.985 57.7615H304.837V64.0735H303.985V57.7615ZM304.417 56.3815C304.241 56.3815 304.093 56.3215 303.973 56.2015C303.853 56.0815 303.793 55.9375 303.793 55.7695C303.793 55.6095 303.853 55.4695 303.973 55.3495C304.093 55.2295 304.241 55.1695 304.417 55.1695C304.593 55.1695 304.741 55.2295 304.861 55.3495C304.981 55.4615 305.041 55.5975 305.041 55.7575C305.041 55.9335 304.981 56.0815 304.861 56.2015C304.741 56.3215 304.593 56.3815 304.417 56.3815ZM310.532 63.6895C310.372 63.8335 310.172 63.9455 309.932 64.0255C309.7 64.0975 309.456 64.1335 309.2 64.1335C308.608 64.1335 308.152 63.9735 307.832 63.6535C307.512 63.3335 307.352 62.8815 307.352 62.2975V58.4815H306.224V57.7615H307.352V56.3815H308.204V57.7615H310.124V58.4815H308.204V62.2495C308.204 62.6255 308.296 62.9135 308.48 63.1135C308.672 63.3055 308.944 63.4015 309.296 63.4015C309.472 63.4015 309.64 63.3735 309.8 63.3175C309.968 63.2615 310.112 63.1815 310.232 63.0775L310.532 63.6895ZM324.487 57.7615L322.099 64.0735H321.295L319.303 58.9015L317.311 64.0735H316.507L314.131 57.7615H314.947L316.927 63.1255L318.955 57.7615H319.687L321.703 63.1255L323.707 57.7615H324.487ZM328.174 64.1335C327.566 64.1335 327.018 63.9975 326.53 63.7255C326.042 63.4455 325.658 63.0615 325.378 62.5735C325.098 62.0855 324.958 61.5335 324.958 60.9175C324.958 60.3015 325.098 59.7495 325.378 59.2615C325.658 58.7735 326.042 58.3935 326.53 58.1215C327.018 57.8495 327.566 57.7135 328.174 57.7135C328.782 57.7135 329.33 57.8495 329.818 58.1215C330.306 58.3935 330.686 58.7735 330.958 59.2615C331.238 59.7495 331.378 60.3015 331.378 60.9175C331.378 61.5335 331.238 62.0855 330.958 62.5735C330.686 63.0615 330.306 63.4455 329.818 63.7255C329.33 63.9975 328.782 64.1335 328.174 64.1335ZM328.174 63.3775C328.622 63.3775 329.022 63.2775 329.374 63.0775C329.734 62.8695 330.014 62.5775 330.214 62.2015C330.414 61.8255 330.514 61.3975 330.514 60.9175C330.514 60.4375 330.414 60.0095 330.214 59.6335C330.014 59.2575 329.734 58.9695 329.374 58.7695C329.022 58.5615 328.622 58.4575 328.174 58.4575C327.726 58.4575 327.322 58.5615 326.962 58.7695C326.61 58.9695 326.33 59.2575 326.122 59.6335C325.922 60.0095 325.822 60.4375 325.822 60.9175C325.822 61.3975 325.922 61.8255 326.122 62.2015C326.33 62.5775 326.61 62.8695 326.962 63.0775C327.322 63.2775 327.726 63.3775 328.174 63.3775ZM333.934 58.9975C334.134 58.5735 334.43 58.2535 334.822 58.0375C335.222 57.8215 335.714 57.7135 336.298 57.7135V58.5415L336.094 58.5295C335.43 58.5295 334.91 58.7335 334.534 59.1415C334.158 59.5495 333.97 60.1215 333.97 60.8575V64.0735H333.118V57.7615H333.934V58.9975ZM340.18 60.9055L338.692 62.2735V64.0735H337.84V55.1695H338.692V61.2055L342.46 57.7615H343.516L340.816 60.3415L343.768 64.0735H342.724L340.18 60.9055ZM346.552 64.1335C346.04 64.1335 345.548 64.0615 345.076 63.9175C344.612 63.7655 344.248 63.5775 343.984 63.3535L344.368 62.6815C344.632 62.8895 344.964 63.0615 345.364 63.1975C345.764 63.3255 346.18 63.3895 346.612 63.3895C347.188 63.3895 347.612 63.3015 347.884 63.1255C348.164 62.9415 348.304 62.6855 348.304 62.3575C348.304 62.1255 348.228 61.9455 348.076 61.8175C347.924 61.6815 347.732 61.5815 347.5 61.5175C347.268 61.4455 346.96 61.3775 346.576 61.3135C346.064 61.2175 345.652 61.1215 345.34 61.0255C345.028 60.9215 344.76 60.7495 344.536 60.5095C344.32 60.2695 344.212 59.9375 344.212 59.5135C344.212 58.9855 344.432 58.5535 344.872 58.2175C345.312 57.8815 345.924 57.7135 346.708 57.7135C347.116 57.7135 347.524 57.7695 347.932 57.8815C348.34 57.9855 348.676 58.1255 348.94 58.3015L348.568 58.9855C348.048 58.6255 347.428 58.4455 346.708 58.4455C346.164 58.4455 345.752 58.5415 345.472 58.7335C345.2 58.9255 345.064 59.1775 345.064 59.4895C345.064 59.7295 345.14 59.9215 345.292 60.0655C345.452 60.2095 345.648 60.3175 345.88 60.3895C346.112 60.4535 346.432 60.5215 346.84 60.5935C347.344 60.6895 347.748 60.7855 348.052 60.8815C348.356 60.9775 348.616 61.1415 348.832 61.3735C349.048 61.6055 349.156 61.9255 349.156 62.3335C349.156 62.8855 348.924 63.3255 348.46 63.6535C348.004 63.9735 347.368 64.1335 346.552 64.1335Z" fill="#5E5E5E"/>
<path d="M35.092 55.6735V64.0735H34.24V57.3535L30.94 63.0055H30.52L27.22 57.3895V64.0735H26.368V55.6735H27.1L30.748 61.9015L34.36 55.6735H35.092ZM42.9529 57.7615L39.7969 64.8295C39.5409 65.4215 39.2449 65.8415 38.9089 66.0895C38.5729 66.3375 38.1689 66.4615 37.6969 66.4615C37.3929 66.4615 37.1089 66.4135 36.8449 66.3175C36.5809 66.2215 36.3529 66.0775 36.1609 65.8855L36.5569 65.2495C36.8769 65.5695 37.2609 65.7295 37.7089 65.7295C37.9969 65.7295 38.2409 65.6495 38.4409 65.4895C38.6489 65.3295 38.8409 65.0575 39.0169 64.6735L39.2929 64.0615L36.4729 57.7615H37.3609L39.7369 63.1255L42.1129 57.7615H42.9529ZM53.3895 59.8735H54.2415V63.0775C53.8495 63.4215 53.3855 63.6855 52.8495 63.8695C52.3135 64.0535 51.7495 64.1455 51.1575 64.1455C50.3175 64.1455 49.5615 63.9615 48.8895 63.5935C48.2175 63.2255 47.6895 62.7175 47.3055 62.0695C46.9215 61.4135 46.7295 60.6815 46.7295 59.8735C46.7295 59.0655 46.9215 58.3375 47.3055 57.6895C47.6895 57.0335 48.2175 56.5215 48.8895 56.1535C49.5615 55.7855 50.3215 55.6015 51.1695 55.6015C51.8095 55.6015 52.3975 55.7055 52.9335 55.9135C53.4695 56.1135 53.9215 56.4135 54.2895 56.8135L53.7375 57.3775C53.0735 56.7215 52.2295 56.3935 51.2055 56.3935C50.5255 56.3935 49.9095 56.5455 49.3575 56.8495C48.8135 57.1455 48.3855 57.5615 48.0735 58.0975C47.7615 58.6255 47.6055 59.2175 47.6055 59.8735C47.6055 60.5295 47.7615 61.1215 48.0735 61.6495C48.3855 62.1775 48.8135 62.5935 49.3575 62.8975C49.9015 63.2015 50.5135 63.3535 51.1935 63.3535C52.0575 63.3535 52.7895 63.1375 53.3895 62.7055V59.8735ZM59.1547 64.1335C58.5467 64.1335 57.9987 63.9975 57.5107 63.7255C57.0227 63.4455 56.6387 63.0615 56.3587 62.5735C56.0787 62.0855 55.9387 61.5335 55.9387 60.9175C55.9387 60.3015 56.0787 59.7495 56.3587 59.2615C56.6387 58.7735 57.0227 58.3935 57.5107 58.1215C57.9987 57.8495 58.5467 57.7135 59.1547 57.7135C59.7627 57.7135 60.3107 57.8495 60.7987 58.1215C61.2867 58.3935 61.6667 58.7735 61.9387 59.2615C62.2187 59.7495 62.3587 60.3015 62.3587 60.9175C62.3587 61.5335 62.2187 62.0855 61.9387 62.5735C61.6667 63.0615 61.2867 63.4455 60.7987 63.7255C60.3107 63.9975 59.7627 64.1335 59.1547 64.1335ZM59.1547 63.3775C59.6027 63.3775 60.0027 63.2775 60.3547 63.0775C60.7147 62.8695 60.9947 62.5775 61.1947 62.2015C61.3947 61.8255 61.4947 61.3975 61.4947 60.9175C61.4947 60.4375 61.3947 60.0095 61.1947 59.6335C60.9947 59.2575 60.7147 58.9695 60.3547 58.7695C60.0027 58.5615 59.6027 58.4575 59.1547 58.4575C58.7067 58.4575 58.3027 58.5615 57.9427 58.7695C57.5907 58.9695 57.3107 59.2575 57.1027 59.6335C56.9027 60.0095 56.8027 60.4375 56.8027 60.9175C56.8027 61.3975 56.9027 61.8255 57.1027 62.2015C57.3107 62.5775 57.5907 62.8695 57.9427 63.0775C58.3027 63.2775 58.7067 63.3775 59.1547 63.3775ZM66.271 57.7135C67.095 57.7135 67.727 57.9215 68.167 58.3375C68.607 58.7455 68.827 59.3535 68.827 60.1615V64.0735H68.011V63.0895C67.819 63.4175 67.535 63.6735 67.159 63.8575C66.791 64.0415 66.351 64.1335 65.839 64.1335C65.135 64.1335 64.575 63.9655 64.159 63.6295C63.743 63.2935 63.535 62.8495 63.535 62.2975C63.535 61.7615 63.727 61.3295 64.111 61.0015C64.503 60.6735 65.123 60.5095 65.971 60.5095H67.975V60.1255C67.975 59.5815 67.823 59.1695 67.519 58.8895C67.215 58.6015 66.771 58.4575 66.187 58.4575C65.787 58.4575 65.403 58.5255 65.035 58.6615C64.667 58.7895 64.351 58.9695 64.087 59.2015L63.703 58.5655C64.023 58.2935 64.407 58.0855 64.855 57.9415C65.303 57.7895 65.775 57.7135 66.271 57.7135ZM65.971 63.4615C66.451 63.4615 66.863 63.3535 67.207 63.1375C67.551 62.9135 67.807 62.5935 67.975 62.1775V61.1455H65.995C64.915 61.1455 64.375 61.5215 64.375 62.2735C64.375 62.6415 64.515 62.9335 64.795 63.1495C65.075 63.3575 65.467 63.4615 65.971 63.4615ZM71.1411 55.1695H71.9931V64.0735H71.1411V55.1695ZM76.0558 64.1335C75.5438 64.1335 75.0518 64.0615 74.5798 63.9175C74.1158 63.7655 73.7518 63.5775 73.4878 63.3535L73.8718 62.6815C74.1358 62.8895 74.4678 63.0615 74.8678 63.1975C75.2678 63.3255 75.6838 63.3895 76.1158 63.3895C76.6918 63.3895 77.1158 63.3015 77.3878 63.1255C77.6678 62.9415 77.8078 62.6855 77.8078 62.3575C77.8078 62.1255 77.7318 61.9455 77.5798 61.8175C77.4278 61.6815 77.2358 61.5815 77.0038 61.5175C76.7718 61.4455 76.4638 61.3775 76.0798 61.3135C75.5678 61.2175 75.1558 61.1215 74.8438 61.0255C74.5318 60.9215 74.2638 60.7495 74.0398 60.5095C73.8238 60.2695 73.7158 59.9375 73.7158 59.5135C73.7158 58.9855 73.9358 58.5535 74.3758 58.2175C74.8158 57.8815 75.4278 57.7135 76.2118 57.7135C76.6198 57.7135 77.0278 57.7695 77.4358 57.8815C77.8438 57.9855 78.1798 58.1255 78.4438 58.3015L78.0718 58.9855C77.5518 58.6255 76.9318 58.4455 76.2118 58.4455C75.6678 58.4455 75.2558 58.5415 74.9758 58.7335C74.7038 58.9255 74.5678 59.1775 74.5678 59.4895C74.5678 59.7295 74.6438 59.9215 74.7958 60.0655C74.9558 60.2095 75.1518 60.3175 75.3838 60.3895C75.6158 60.4535 75.9358 60.5215 76.3438 60.5935C76.8478 60.6895 77.2518 60.7855 77.5558 60.8815C77.8598 60.9775 78.1198 61.1415 78.3358 61.3735C78.5518 61.6055 78.6598 61.9255 78.6598 62.3335C78.6598 62.8855 78.4278 63.3255 77.9638 63.6535C77.5078 63.9735 76.8718 64.1335 76.0558 64.1335Z" fill="#0077B6"/>
<path fill-rule="evenodd" clip-rule="evenodd" d="M52.8254 35.899C55.5868 35.899 57.8254 33.6604 57.8254 30.899C57.8254 28.1376 55.5868 25.899 52.8254 25.899C50.064 25.899 47.8254 28.1376 47.8254 30.899C47.8254 33.6604 50.064 35.899 52.8254 35.899ZM52.8254 38.6263C57.0931 38.6263 60.5527 35.1667 60.5527 30.899C60.5527 26.6314 57.0931 23.1718 52.8254 23.1718C48.5578 23.1718 45.0981 26.6314 45.0981 30.899C45.0981 35.1667 48.5578 38.6263 52.8254 38.6263Z" fill="#0077B6"/>
<path fill-rule="evenodd" clip-rule="evenodd" d="M52.8254 43.1718C59.6035 43.1718 65.0982 37.6771 65.0982 30.899C65.0982 24.121 59.6035 18.6263 52.8254 18.6263C46.0474 18.6263 40.5527 24.121 40.5527 30.899C40.5527 37.6771 46.0474 43.1718 52.8254 43.1718ZM52.8254 45.899C61.1097 45.899 67.8254 39.1833 67.8254 30.899C67.8254 22.6148 61.1097 15.899 52.8254 15.899C44.5412 15.899 37.8254 22.6148 37.8254 30.899C37.8254 39.1833 44.5412 45.899 52.8254 45.899Z" fill="#0077B6"/>
</g>
</g>
<defs>
<filter id="filter0_d" x="-4" y="-1" width="383" height="78.248" filterUnits="userSpaceOnUse" color-interpolation-filters="sRGB">
<feFlood flood-opacity="0" result="BackgroundImageFix"/>
<feColorMatrix in="SourceAlpha" type="matrix" values="0 0 0 0 0 0 0 0 0 0 0 0 0 0 0 0 0 0 127 0" result="hardAlpha"/>
<feOffset dy="-2"/>
<feGaussianBlur stdDeviation="2"/>
<feComposite in2="hardAlpha" operator="out"/>
<feColorMatrix type="matrix" values="0 0 0 0 0 0 0 0 0 0 0 0 0 0 0 0 0 0 0.25 0"/>
<feBlend mode="normal" in2="BackgroundImageFix" result="effect1_dropShadow"/>
<feBlend mode="normal" in="SourceGraphic" in2="effect1_dropShadow" result="shape"/>
</filter>
<clipPath id="clip0">
<rect width="375" height="73" fill="white"/>
</clipPath>
<clipPath id="clip1">
<rect width="30" height="30" fill="white" transform="translate(295 15.899)"/>
</clipPath>
</defs>
</svg>
